{
    "asset": {
        "generator": "https://3dviewer.net",
        "version": "2.0"
    },
    "scene": 0,
    "scenes": [
        {
            "nodes": [
                0,
                1,
                2,
                3,
                4,
                5
            ]
        }
    ],
    "nodes": [
        {
            "mesh": 0
        },
        {
            "mesh": 1
        },
        {
            "mesh": 2
        },
        {
            "mesh": 3
        },
        {
            "mesh": 4
        },
        {
            "mesh": 5
        }
    ],
    "materials": [
        {
            "name": "Mirror",
            "pbrMetallicRoughness": {
                "baseColorFactor": [
                    0.651405637412793,
                    0.7529422167708612,
                    0.8796223968851662,
                    1
                ]
            },
            "emissiveFactor": [
                0,
                0,
                0
            ],
            "doubleSided": true,
            "alphaMode": "OPAQUE"
        },
        {
            "name": "Steel",
            "pbrMetallicRoughness": {
                "baseColorFactor": [
                    0.6866853124288865,
                    0.450785782828426,
                    0.11953842797895521,
                    1
                ]
            },
            "emissiveFactor": [
                0,
                0,
                0
            ],
            "doubleSided": true,
            "alphaMode": "OPAQUE"
        }
    ],
    "meshes": [
        {
            "name": "zerkal",
            "primitives": [
                {
                    "attributes": {
                        "POSITION": 1,
                        "NORMAL": 2,
                        "TEXCOORD_0": 3
                    },
                    "mode": 4,
                    "material": 0,
                    "indices": 0
                }
            ]
        },
        {
            "name": "sub01",
            "primitives": [
                {
                    "attributes": {
                        "POSITION": 5,
                        "NORMAL": 6,
                        "TEXCOORD_0": 7
                    },
                    "mode": 4,
                    "material": 1,
                    "indices": 4
                }
            ]
        },
        {
            "name": "sub02",
            "primitives": [
                {
                    "attributes": {
                        "POSITION": 9,
                        "NORMAL": 10,
                        "TEXCOORD_0": 11
                    },
                    "mode": 4,
                    "material": 1,
                    "indices": 8
                }
            ]
        },
        {
            "name": "sub03",
            "primitives": [
                {
                    "attributes": {
                        "POSITION": 13,
                        "NORMAL": 14,
                        "TEXCOORD_0": 15
                    },
                    "mode": 4,
                    "material": 1,
                    "indices": 12
                }
            ]
        },
        {
            "name": "sub04",
            "primitives": [
                {
                    "attributes": {
                        "POSITION": 17,
                        "NORMAL": 18,
                        "TEXCOORD_0": 19
                    },
                    "mode": 4,
                    "material": 1,
                    "indices": 16
                }
            ]
        },
        {
            "name": "sub05",
            "primitives": [
                {
                    "attributes": {
                        "POSITION": 21,
                        "NORMAL": 22,
                        "TEXCOORD_0": 23
                    },
                    "mode": 4,
                    "material": 1,
                    "indices": 20
                }
            ]
        }
    ],
    "buffers": [
        {
            "uri": "model.bin",
            "byteLength": 34271200
        }
    ],
    "bufferViews": [
        {
            "buffer": 0,
            "byteOffset": 0,
            "byteLength": 294864
        },
        {
            "buffer": 0,
            "byteOffset": 294864,
            "byteLength": 727368
        },
        {
            "buffer": 0,
            "byteOffset": 1022232,
            "byteLength": 727368
        },
        {
            "buffer": 0,
            "byteOffset": 1749600,
            "byteLength": 484912
        },
        {
            "buffer": 0,
            "byteOffset": 2234512,
            "byteLength": 786396
        },
        {
            "buffer": 0,
            "byteOffset": 3020908,
            "byteLength": 2358660
        },
        {
            "buffer": 0,
            "byteOffset": 5379568,
            "byteLength": 2358660
        },
        {
            "buffer": 0,
            "byteOffset": 7738228,
            "byteLength": 1572440
        },
        {
            "buffer": 0,
            "byteOffset": 9310668,
            "byteLength": 786396
        },
        {
            "buffer": 0,
            "byteOffset": 10097064,
            "byteLength": 2358948
        },
        {
            "buffer": 0,
            "byteOffset": 12456012,
            "byteLength": 2358948
        },
        {
            "buffer": 0,
            "byteOffset": 14814960,
            "byteLength": 1572632
        },
        {
            "buffer": 0,
            "byteOffset": 16387592,
            "byteLength": 786396
        },
        {
            "buffer": 0,
            "byteOffset": 17173988,
            "byteLength": 2358780
        },
        {
            "buffer": 0,
            "byteOffset": 19532768,
            "byteLength": 2358780
        },
        {
            "buffer": 0,
            "byteOffset": 21891548,
            "byteLength": 1572520
        },
        {
            "buffer": 0,
            "byteOffset": 23464068,
            "byteLength": 786396
        },
        {
            "buffer": 0,
            "byteOffset": 24250464,
            "byteLength": 2359116
        },
        {
            "buffer": 0,
            "byteOffset": 26609580,
            "byteLength": 2359116
        },
        {
            "buffer": 0,
            "byteOffset": 28968696,
            "byteLength": 1572744
        },
        {
            "buffer": 0,
            "byteOffset": 30541440,
            "byteLength": 414432
        },
        {
            "buffer": 0,
            "byteOffset": 30955872,
            "byteLength": 1243248
        },
        {
            "buffer": 0,
            "byteOffset": 32199120,
            "byteLength": 1243248
        },
        {
            "buffer": 0,
            "byteOffset": 33442368,
            "byteLength": 828832
        }
    ],
    "accessors": [
        {
            "bufferView": 0,
            "byteOffset": 0,
            "componentType": 5125,
            "count": 73716,
            "type": "SCALAR"
        },
        {
            "bufferView": 1,
            "byteOffset": 0,
            "componentType": 5126,
            "count": 60614,
            "min": [
                -4660.451171875,
                -4660.451171874995,
                -97.22075653076382
            ],
            "max": [
                4660.44921875,
                4660.448730468745,
                86.99688720703509
            ],
            "type": "VEC3"
        },
        {
            "bufferView": 2,
            "byteOffset": 0,
            "componentType": 5126,
            "count": 60614,
            "type": "VEC3"
        },
        {
            "bufferView": 3,
            "byteOffset": 0,
            "componentType": 5126,
            "count": 60614,
            "type": "VEC2"
        },
        {
            "bufferView": 4,
            "byteOffset": 0,
            "componentType": 5125,
            "count": 196599,
            "type": "SCALAR"
        },
        {
            "bufferView": 5,
            "byteOffset": 0,
            "componentType": 5126,
            "count": 196555,
            "min": [
                -4846.0390625,
                -4846.0551757812445,
                -147.98736572265898
            ],
            "max": [
                4846.0390625,
                4846.055175781245,
                147.98738098144872
            ],
            "type": "VEC3"
        },
        {
            "bufferView": 6,
            "byteOffset": 0,
            "componentType": 5126,
            "count": 196555,
            "type": "VEC3"
        },
        {
            "bufferView": 7,
            "byteOffset": 0,
            "componentType": 5126,
            "count": 196555,
            "type": "VEC2"
        },
        {
            "bufferView": 8,
            "byteOffset": 0,
            "componentType": 5125,
            "count": 196599,
            "type": "SCALAR"
        },
        {
            "bufferView": 9,
            "byteOffset": 0,
            "componentType": 5126,
            "count": 196579,
            "min": [
                -4671.4384765625,
                -4669.6137695312445,
                -30.53492927550485
            ],
            "max": [
                4452.6748046875,
                3999.541992187496,
                105.46614837646713
            ],
            "type": "VEC3"
        },
        {
            "bufferView": 10,
            "byteOffset": 0,
            "componentType": 5126,
            "count": 196579,
            "type": "VEC3"
        },
        {
            "bufferView": 11,
            "byteOffset": 0,
            "componentType": 5126,
            "count": 196579,
            "type": "VEC2"
        },
        {
            "bufferView": 12,
            "byteOffset": 0,
            "componentType": 5125,
            "count": 196599,
            "type": "SCALAR"
        },
        {
            "bufferView": 13,
            "byteOffset": 0,
            "componentType": 5126,
            "count": 196565,
            "min": [
                -3820.643310546875,
                -3820.6030273437455,
                -30.546064376838416
            ],
            "max": [
                3823.043212890625,
                3460.8364257812464,
                105.50250244140636
            ],
            "type": "VEC3"
        },
        {
            "bufferView": 14,
            "byteOffset": 0,
            "componentType": 5126,
            "count": 196565,
            "type": "VEC3"
        },
        {
            "bufferView": 15,
            "byteOffset": 0,
            "componentType": 5126,
            "count": 196565,
            "type": "VEC2"
        },
        {
            "bufferView": 16,
            "byteOffset": 0,
            "componentType": 5125,
            "count": 196599,
            "type": "SCALAR"
        },
        {
            "bufferView": 17,
            "byteOffset": 0,
            "componentType": 5126,
            "count": 196593,
            "min": [
                -2934.337158203125,
                -2933.374023437497,
                -26.028518676763127
            ],
            "max": [
                2800.324951171875,
                2931.7797851562477,
                105.51277923583889
            ],
            "type": "VEC3"
        },
        {
            "bufferView": 18,
            "byteOffset": 0,
            "componentType": 5126,
            "count": 196593,
            "type": "VEC3"
        },
        {
            "bufferView": 19,
            "byteOffset": 0,
            "componentType": 5126,
            "count": 196593,
            "type": "VEC2"
        },
        {
            "bufferView": 20,
            "byteOffset": 0,
            "componentType": 5125,
            "count": 103608,
            "type": "SCALAR"
        },
        {
            "bufferView": 21,
            "byteOffset": 0,
            "componentType": 5126,
            "count": 103604,
            "min": [
                -2199.810546875,
                -2199.8432617187473,
                -25.903797149662324
            ],
            "max": [
                2000.388916015625,
                2198.1347656249977,
                105.37633514404007
            ],
            "type": "VEC3"
        },
        {
            "bufferView": 22,
            "byteOffset": 0,
            "componentType": 5126,
            "count": 103604,
            "type": "VEC3"
        },
        {
            "bufferView": 23,
            "byteOffset": 0,
            "componentType": 5126,
            "count": 103604,
            "type": "VEC2"
        }
    ]
}